<?xml version="1.0" encoding="UTF-8"?>
<!DOCTYPE svg PUBLIC "-//W3C//DTD SVG 1.1//EN" "http://www.w3.org/Graphics/SVG/1.1/DTD/svg11.dtd">
<!-- Creator: CorelDRAW Home & Student X7 -->
<svg xmlns="http://www.w3.org/2000/svg" xml:space="preserve" width="210mm" height="297mm" version="1.1" style="shape-rendering:geometricPrecision; text-rendering:geometricPrecision; image-rendering:optimizeQuality; fill-rule:evenodd; clip-rule:evenodd"
viewBox="0 0 21000 29700"
 xmlns:xlink="http://www.w3.org/1999/xlink">
 <defs>
  <style type="text/css">
   <![CDATA[
    .str0 {stroke:black;stroke-width:1000}
    .fil0 {fill:none}
   ]]>
  </style>
 </defs>
 <g id="Ebene_x0020_1">
  <metadata id="CorelCorpID_0Corel-Layer"/>
  <path class="fil0 str0" d="M-44515 -450l13876 0c276,0 500,200 500,447l0 29106c0,247 -224,447 -500,447l-13876 0c-276,0 -500,-200 -500,-447l0 -29106c0,-247 224,-447 500,-447z"/>
  <path class="fil0 str0" d="M-28909 -450l13876 0c276,0 500,200 500,447l0 29106c0,247 -224,447 -500,447l-13876 0c-276,0 -500,-200 -500,-447l0 -29106c0,-247 224,-447 500,-447z"/>
  <path class="fil0 str0" d="M-26673 2050l9328 0c186,0 336,100 336,224l0 14552c0,124 -150,224 -336,224l-9328 0c-186,0 -336,-100 -336,-224l0 -14552c0,-124 150,-224 336,-224z"/>
  <path class="fil0 str0" d="M-42301 2050l9328 0c186,0 336,100 336,224l0 14552c0,124 -150,224 -336,224l-9328 0c-186,0 -336,-100 -336,-224l0 -14552c0,-124 150,-224 336,-224z"/>
  <path class="fil0 str0" d="M-11811 13495l0 0 0 0 4621 -3945 -4621 -3945 0 0 0 0 0 7890zm0 0m0 0m2310 -1972m0 -3946m-2310 -1972m0 0m0 3945"/>
  <path class="fil0 str0" d="M-47690 5605l0 0 0 0 -4621 3945 4621 3945 0 0 0 0 0 -7890zm0 0m0 0m-2310 1972m0 3946m2310 1972m0 0m0 -3945"/>
 </g>
</svg>
